<?xml version="1.0" encoding="UTF-8"?>
<svg xmlns="http://www.w3.org/2000/svg" xmlns:xlink="http://www.w3.org/1999/xlink" width="142px" height="80px" viewBox="0 0 142 80" version="1.1">
<defs>
<radialGradient id="radial0" gradientUnits="userSpaceOnUse" cx="0" cy="0" fx="0" fy="0" r="1" gradientTransform="matrix(20.630054,0,0,20.720542,33.378534,39.9326)">
<stop offset="0" style="stop-color:rgb(96.862745%,74.901961%,11.764706%);stop-opacity:1;"/>
<stop offset="0.759777" style="stop-color:rgb(94.901961%,33.72549%,11.764706%);stop-opacity:1;"/>
<stop offset="1" style="stop-color:rgb(94.901961%,33.72549%,11.764706%);stop-opacity:1;"/>
</radialGradient>
<radialGradient id="radial1" gradientUnits="userSpaceOnUse" cx="0" cy="0" fx="0" fy="0" r="1" gradientTransform="matrix(20.569958,0,0,20.660183,33.413887,39.93251)">
<stop offset="0" style="stop-color:rgb(32.156863%,66.666667%,89.019608%);stop-opacity:1;"/>
<stop offset="0.0167598" style="stop-color:rgb(32.156863%,66.666667%,89.019608%);stop-opacity:1;"/>
<stop offset="1" style="stop-color:rgb(14.509804%,28.235294%,63.921569%);stop-opacity:1;"/>
</radialGradient>
<radialGradient id="radial2" gradientUnits="userSpaceOnUse" cx="0" cy="0" fx="0" fy="0" r="1" gradientTransform="matrix(20.569958,0,0,20.660183,33.413887,39.93251)">
<stop offset="0" style="stop-color:rgb(32.156863%,66.666667%,89.019608%);stop-opacity:1;"/>
<stop offset="0.0167598" style="stop-color:rgb(32.156863%,66.666667%,89.019608%);stop-opacity:1;"/>
<stop offset="1" style="stop-color:rgb(14.509804%,28.235294%,63.921569%);stop-opacity:1;"/>
</radialGradient>
<radialGradient id="radial3" gradientUnits="userSpaceOnUse" cx="0" cy="0" fx="0" fy="0" r="1" gradientTransform="matrix(20.569958,0,0,20.660183,33.413887,39.93251)">
<stop offset="0" style="stop-color:rgb(32.156863%,66.666667%,89.019608%);stop-opacity:1;"/>
<stop offset="0.0167598" style="stop-color:rgb(32.156863%,66.666667%,89.019608%);stop-opacity:1;"/>
<stop offset="1" style="stop-color:rgb(14.509804%,28.235294%,63.921569%);stop-opacity:1;"/>
</radialGradient>
<radialGradient id="radial4" gradientUnits="userSpaceOnUse" cx="0" cy="0" fx="0" fy="0" r="1" gradientTransform="matrix(20.569958,0,0,20.660183,33.413887,39.93251)">
<stop offset="0" style="stop-color:rgb(32.156863%,66.666667%,89.019608%);stop-opacity:1;"/>
<stop offset="0.0167598" style="stop-color:rgb(32.156863%,66.666667%,89.019608%);stop-opacity:1;"/>
<stop offset="1" style="stop-color:rgb(14.509804%,28.235294%,63.921569%);stop-opacity:1;"/>
</radialGradient>
<radialGradient id="radial5" gradientUnits="userSpaceOnUse" cx="0" cy="0" fx="0" fy="0" r="1" gradientTransform="matrix(20.569958,0,0,20.660183,33.413887,39.93251)">
<stop offset="0" style="stop-color:rgb(32.156863%,66.666667%,89.019608%);stop-opacity:1;"/>
<stop offset="0.0167598" style="stop-color:rgb(32.156863%,66.666667%,89.019608%);stop-opacity:1;"/>
<stop offset="1" style="stop-color:rgb(14.509804%,28.235294%,63.921569%);stop-opacity:1;"/>
</radialGradient>
<radialGradient id="radial6" gradientUnits="userSpaceOnUse" cx="0" cy="0" fx="0" fy="0" r="1" gradientTransform="matrix(20.569958,0,0,20.660183,33.413887,39.93251)">
<stop offset="0" style="stop-color:rgb(32.156863%,66.666667%,89.019608%);stop-opacity:1;"/>
<stop offset="0.0167598" style="stop-color:rgb(32.156863%,66.666667%,89.019608%);stop-opacity:1;"/>
<stop offset="1" style="stop-color:rgb(14.509804%,28.235294%,63.921569%);stop-opacity:1;"/>
</radialGradient>
<radialGradient id="radial7" gradientUnits="userSpaceOnUse" cx="0" cy="0" fx="0" fy="0" r="1" gradientTransform="matrix(20.569958,0,0,20.660183,33.413887,39.93251)">
<stop offset="0" style="stop-color:rgb(32.156863%,66.666667%,89.019608%);stop-opacity:1;"/>
<stop offset="0.0167598" style="stop-color:rgb(32.156863%,66.666667%,89.019608%);stop-opacity:1;"/>
<stop offset="1" style="stop-color:rgb(14.509804%,28.235294%,63.921569%);stop-opacity:1;"/>
</radialGradient>
<radialGradient id="radial8" gradientUnits="userSpaceOnUse" cx="0" cy="0" fx="0" fy="0" r="1" gradientTransform="matrix(20.569958,0,0,20.660183,33.413887,39.93251)">
<stop offset="0" style="stop-color:rgb(32.156863%,66.666667%,89.019608%);stop-opacity:1;"/>
<stop offset="0.0167598" style="stop-color:rgb(32.156863%,66.666667%,89.019608%);stop-opacity:1;"/>
<stop offset="1" style="stop-color:rgb(14.509804%,28.235294%,63.921569%);stop-opacity:1;"/>
</radialGradient>
<radialGradient id="radial9" gradientUnits="userSpaceOnUse" cx="0" cy="0" fx="0" fy="0" r="1" gradientTransform="matrix(20.569958,0,0,20.660183,33.413887,39.93251)">
<stop offset="0" style="stop-color:rgb(32.156863%,66.666667%,89.019608%);stop-opacity:1;"/>
<stop offset="0.0167598" style="stop-color:rgb(32.156863%,66.666667%,89.019608%);stop-opacity:1;"/>
<stop offset="1" style="stop-color:rgb(14.509804%,28.235294%,63.921569%);stop-opacity:1;"/>
</radialGradient>
<radialGradient id="radial10" gradientUnits="userSpaceOnUse" cx="0" cy="0" fx="0" fy="0" r="1" gradientTransform="matrix(20.569958,0,0,20.660183,33.413887,39.93251)">
<stop offset="0" style="stop-color:rgb(32.156863%,66.666667%,89.019608%);stop-opacity:1;"/>
<stop offset="0.0167598" style="stop-color:rgb(32.156863%,66.666667%,89.019608%);stop-opacity:1;"/>
<stop offset="1" style="stop-color:rgb(14.509804%,28.235294%,63.921569%);stop-opacity:1;"/>
</radialGradient>
<radialGradient id="radial11" gradientUnits="userSpaceOnUse" cx="0" cy="0" fx="0" fy="0" r="1" gradientTransform="matrix(20.569958,0,0,20.660183,33.413887,39.93251)">
<stop offset="0" style="stop-color:rgb(32.156863%,66.666667%,89.019608%);stop-opacity:1;"/>
<stop offset="0.0167598" style="stop-color:rgb(32.156863%,66.666667%,89.019608%);stop-opacity:1;"/>
<stop offset="1" style="stop-color:rgb(14.509804%,28.235294%,63.921569%);stop-opacity:1;"/>
</radialGradient>
<radialGradient id="radial12" gradientUnits="userSpaceOnUse" cx="0" cy="0" fx="0" fy="0" r="1" gradientTransform="matrix(20.569958,0,0,20.660183,33.413887,39.93251)">
<stop offset="0" style="stop-color:rgb(32.156863%,66.666667%,89.019608%);stop-opacity:1;"/>
<stop offset="0.0167598" style="stop-color:rgb(32.156863%,66.666667%,89.019608%);stop-opacity:1;"/>
<stop offset="1" style="stop-color:rgb(14.509804%,28.235294%,63.921569%);stop-opacity:1;"/>
</radialGradient>
<radialGradient id="radial13" gradientUnits="userSpaceOnUse" cx="0" cy="0" fx="0" fy="0" r="1" gradientTransform="matrix(20.569958,0,0,20.660183,33.413887,39.93251)">
<stop offset="0" style="stop-color:rgb(32.156863%,66.666667%,89.019608%);stop-opacity:1;"/>
<stop offset="0.0167598" style="stop-color:rgb(32.156863%,66.666667%,89.019608%);stop-opacity:1;"/>
<stop offset="1" style="stop-color:rgb(14.509804%,28.235294%,63.921569%);stop-opacity:1;"/>
</radialGradient>
<radialGradient id="radial14" gradientUnits="userSpaceOnUse" cx="0" cy="0" fx="0" fy="0" r="1" gradientTransform="matrix(20.569958,0,0,20.660183,33.413887,39.93251)">
<stop offset="0" style="stop-color:rgb(32.156863%,66.666667%,89.019608%);stop-opacity:1;"/>
<stop offset="0.0167598" style="stop-color:rgb(32.156863%,66.666667%,89.019608%);stop-opacity:1;"/>
<stop offset="1" style="stop-color:rgb(14.509804%,28.235294%,63.921569%);stop-opacity:1;"/>
</radialGradient>
<radialGradient id="radial15" gradientUnits="userSpaceOnUse" cx="0" cy="0" fx="0" fy="0" r="1" gradientTransform="matrix(20.569958,0,0,20.660183,33.413887,39.93251)">
<stop offset="0" style="stop-color:rgb(32.156863%,66.666667%,89.019608%);stop-opacity:1;"/>
<stop offset="0.0167598" style="stop-color:rgb(32.156863%,66.666667%,89.019608%);stop-opacity:1;"/>
<stop offset="1" style="stop-color:rgb(14.509804%,28.235294%,63.921569%);stop-opacity:1;"/>
</radialGradient>
<radialGradient id="radial16" gradientUnits="userSpaceOnUse" cx="0" cy="0" fx="0" fy="0" r="1" gradientTransform="matrix(20.569958,0,0,20.660183,33.413887,39.93251)">
<stop offset="0" style="stop-color:rgb(32.156863%,66.666667%,89.019608%);stop-opacity:1;"/>
<stop offset="0.0167598" style="stop-color:rgb(32.156863%,66.666667%,89.019608%);stop-opacity:1;"/>
<stop offset="1" style="stop-color:rgb(14.509804%,28.235294%,63.921569%);stop-opacity:1;"/>
</radialGradient>
<radialGradient id="radial17" gradientUnits="userSpaceOnUse" cx="0" cy="0" fx="0" fy="0" r="1" gradientTransform="matrix(20.569958,0,0,20.660183,33.413887,39.93251)">
<stop offset="0" style="stop-color:rgb(32.156863%,66.666667%,89.019608%);stop-opacity:1;"/>
<stop offset="0.0167598" style="stop-color:rgb(32.156863%,66.666667%,89.019608%);stop-opacity:1;"/>
<stop offset="1" style="stop-color:rgb(14.509804%,28.235294%,63.921569%);stop-opacity:1;"/>
</radialGradient>
<radialGradient id="radial18" gradientUnits="userSpaceOnUse" cx="0" cy="0" fx="0" fy="0" r="1" gradientTransform="matrix(20.569958,0,0,20.660183,33.413887,39.93251)">
<stop offset="0" style="stop-color:rgb(32.156863%,66.666667%,89.019608%);stop-opacity:1;"/>
<stop offset="0.0167598" style="stop-color:rgb(32.156863%,66.666667%,89.019608%);stop-opacity:1;"/>
<stop offset="1" style="stop-color:rgb(14.509804%,28.235294%,63.921569%);stop-opacity:1;"/>
</radialGradient>
<radialGradient id="radial19" gradientUnits="userSpaceOnUse" cx="0" cy="0" fx="0" fy="0" r="1" gradientTransform="matrix(20.569958,0,0,20.660183,33.413887,39.93251)">
<stop offset="0" style="stop-color:rgb(32.156863%,66.666667%,89.019608%);stop-opacity:1;"/>
<stop offset="0.0167598" style="stop-color:rgb(32.156863%,66.666667%,89.019608%);stop-opacity:1;"/>
<stop offset="1" style="stop-color:rgb(14.509804%,28.235294%,63.921569%);stop-opacity:1;"/>
</radialGradient>
<radialGradient id="radial20" gradientUnits="userSpaceOnUse" cx="0" cy="0" fx="0" fy="0" r="1" gradientTransform="matrix(20.569958,0,0,20.660183,33.413887,39.93251)">
<stop offset="0" style="stop-color:rgb(32.156863%,66.666667%,89.019608%);stop-opacity:1;"/>
<stop offset="0.0167598" style="stop-color:rgb(32.156863%,66.666667%,89.019608%);stop-opacity:1;"/>
<stop offset="1" style="stop-color:rgb(14.509804%,28.235294%,63.921569%);stop-opacity:1;"/>
</radialGradient>
<radialGradient id="radial21" gradientUnits="userSpaceOnUse" cx="0" cy="0" fx="0" fy="0" r="1" gradientTransform="matrix(20.569958,0,0,20.660183,33.413887,39.93251)">
<stop offset="0" style="stop-color:rgb(32.156863%,66.666667%,89.019608%);stop-opacity:1;"/>
<stop offset="0.0167598" style="stop-color:rgb(32.156863%,66.666667%,89.019608%);stop-opacity:1;"/>
<stop offset="1" style="stop-color:rgb(14.509804%,28.235294%,63.921569%);stop-opacity:1;"/>
</radialGradient>
<radialGradient id="radial22" gradientUnits="userSpaceOnUse" cx="0" cy="0" fx="0" fy="0" r="1" gradientTransform="matrix(20.569958,0,0,20.660183,33.413887,39.93251)">
<stop offset="0" style="stop-color:rgb(32.156863%,66.666667%,89.019608%);stop-opacity:1;"/>
<stop offset="0.0167598" style="stop-color:rgb(32.156863%,66.666667%,89.019608%);stop-opacity:1;"/>
<stop offset="1" style="stop-color:rgb(14.509804%,28.235294%,63.921569%);stop-opacity:1;"/>
</radialGradient>
<radialGradient id="radial23" gradientUnits="userSpaceOnUse" cx="0" cy="0" fx="0" fy="0" r="1" gradientTransform="matrix(20.569958,0,0,20.660183,33.413887,39.93251)">
<stop offset="0" style="stop-color:rgb(32.156863%,66.666667%,89.019608%);stop-opacity:1;"/>
<stop offset="0.0167598" style="stop-color:rgb(32.156863%,66.666667%,89.019608%);stop-opacity:1;"/>
<stop offset="1" style="stop-color:rgb(14.509804%,28.235294%,63.921569%);stop-opacity:1;"/>
</radialGradient>
<radialGradient id="radial24" gradientUnits="userSpaceOnUse" cx="0" cy="0" fx="0" fy="0" r="1" gradientTransform="matrix(20.569958,0,0,20.660183,33.413887,39.93251)">
<stop offset="0" style="stop-color:rgb(32.156863%,66.666667%,89.019608%);stop-opacity:1;"/>
<stop offset="0.0167598" style="stop-color:rgb(32.156863%,66.666667%,89.019608%);stop-opacity:1;"/>
<stop offset="1" style="stop-color:rgb(14.509804%,28.235294%,63.921569%);stop-opacity:1;"/>
</radialGradient>
<radialGradient id="radial25" gradientUnits="userSpaceOnUse" cx="0" cy="0" fx="0" fy="0" r="1" gradientTransform="matrix(20.569958,0,0,20.660183,33.413887,39.93251)">
<stop offset="0" style="stop-color:rgb(32.156863%,66.666667%,89.019608%);stop-opacity:1;"/>
<stop offset="0.0167598" style="stop-color:rgb(32.156863%,66.666667%,89.019608%);stop-opacity:1;"/>
<stop offset="1" style="stop-color:rgb(14.509804%,28.235294%,63.921569%);stop-opacity:1;"/>
</radialGradient>
<radialGradient id="radial26" gradientUnits="userSpaceOnUse" cx="0" cy="0" fx="0" fy="0" r="1" gradientTransform="matrix(20.569958,0,0,20.660183,33.413887,39.93251)">
<stop offset="0" style="stop-color:rgb(32.156863%,66.666667%,89.019608%);stop-opacity:1;"/>
<stop offset="0.0167598" style="stop-color:rgb(32.156863%,66.666667%,89.019608%);stop-opacity:1;"/>
<stop offset="1" style="stop-color:rgb(14.509804%,28.235294%,63.921569%);stop-opacity:1;"/>
</radialGradient>
<radialGradient id="radial27" gradientUnits="userSpaceOnUse" cx="0" cy="0" fx="0" fy="0" r="1" gradientTransform="matrix(20.569958,0,0,20.660183,33.413887,39.93251)">
<stop offset="0" style="stop-color:rgb(32.156863%,66.666667%,89.019608%);stop-opacity:1;"/>
<stop offset="0.0167598" style="stop-color:rgb(32.156863%,66.666667%,89.019608%);stop-opacity:1;"/>
<stop offset="1" style="stop-color:rgb(14.509804%,28.235294%,63.921569%);stop-opacity:1;"/>
</radialGradient>
<radialGradient id="radial28" gradientUnits="userSpaceOnUse" cx="0" cy="0" fx="0" fy="0" r="1" gradientTransform="matrix(20.569958,0,0,20.660183,33.413887,39.93251)">
<stop offset="0" style="stop-color:rgb(32.156863%,66.666667%,89.019608%);stop-opacity:1;"/>
<stop offset="0.0167598" style="stop-color:rgb(32.156863%,66.666667%,89.019608%);stop-opacity:1;"/>
<stop offset="1" style="stop-color:rgb(14.509804%,28.235294%,63.921569%);stop-opacity:1;"/>
</radialGradient>
<radialGradient id="radial29" gradientUnits="userSpaceOnUse" cx="0" cy="0" fx="0" fy="0" r="1" gradientTransform="matrix(20.569958,0,0,20.660183,33.413887,39.93251)">
<stop offset="0" style="stop-color:rgb(32.156863%,66.666667%,89.019608%);stop-opacity:1;"/>
<stop offset="0.0167598" style="stop-color:rgb(32.156863%,66.666667%,89.019608%);stop-opacity:1;"/>
<stop offset="1" style="stop-color:rgb(14.509804%,28.235294%,63.921569%);stop-opacity:1;"/>
</radialGradient>
<radialGradient id="radial30" gradientUnits="userSpaceOnUse" cx="0" cy="0" fx="0" fy="0" r="1" gradientTransform="matrix(20.569958,0,0,20.660183,33.413887,39.93251)">
<stop offset="0" style="stop-color:rgb(32.156863%,66.666667%,89.019608%);stop-opacity:1;"/>
<stop offset="0.0167598" style="stop-color:rgb(32.156863%,66.666667%,89.019608%);stop-opacity:1;"/>
<stop offset="1" style="stop-color:rgb(14.509804%,28.235294%,63.921569%);stop-opacity:1;"/>
</radialGradient>
<radialGradient id="radial31" gradientUnits="userSpaceOnUse" cx="0" cy="0" fx="0" fy="0" r="1" gradientTransform="matrix(20.569958,0,0,20.660183,33.413887,39.93251)">
<stop offset="0" style="stop-color:rgb(32.156863%,66.666667%,89.019608%);stop-opacity:1;"/>
<stop offset="0.0167598" style="stop-color:rgb(32.156863%,66.666667%,89.019608%);stop-opacity:1;"/>
<stop offset="1" style="stop-color:rgb(14.509804%,28.235294%,63.921569%);stop-opacity:1;"/>
</radialGradient>
<radialGradient id="radial32" gradientUnits="userSpaceOnUse" cx="0" cy="0" fx="0" fy="0" r="1" gradientTransform="matrix(20.569958,0,0,20.660183,33.413887,39.93251)">
<stop offset="0" style="stop-color:rgb(32.156863%,66.666667%,89.019608%);stop-opacity:1;"/>
<stop offset="0.0167598" style="stop-color:rgb(32.156863%,66.666667%,89.019608%);stop-opacity:1;"/>
<stop offset="1" style="stop-color:rgb(14.509804%,28.235294%,63.921569%);stop-opacity:1;"/>
</radialGradient>
<radialGradient id="radial33" gradientUnits="userSpaceOnUse" cx="0" cy="0" fx="0" fy="0" r="1" gradientTransform="matrix(20.569958,0,0,20.660183,33.413887,39.93251)">
<stop offset="0" style="stop-color:rgb(32.156863%,66.666667%,89.019608%);stop-opacity:1;"/>
<stop offset="0.0167598" style="stop-color:rgb(32.156863%,66.666667%,89.019608%);stop-opacity:1;"/>
<stop offset="1" style="stop-color:rgb(14.509804%,28.235294%,63.921569%);stop-opacity:1;"/>
</radialGradient>
<radialGradient id="radial34" gradientUnits="userSpaceOnUse" cx="0" cy="0" fx="0" fy="0" r="1" gradientTransform="matrix(20.569958,0,0,20.660183,33.413887,39.93251)">
<stop offset="0" style="stop-color:rgb(32.156863%,66.666667%,89.019608%);stop-opacity:1;"/>
<stop offset="0.0167598" style="stop-color:rgb(32.156863%,66.666667%,89.019608%);stop-opacity:1;"/>
<stop offset="1" style="stop-color:rgb(14.509804%,28.235294%,63.921569%);stop-opacity:1;"/>
</radialGradient>
<radialGradient id="radial35" gradientUnits="userSpaceOnUse" cx="0" cy="0" fx="0" fy="0" r="1" gradientTransform="matrix(20.569958,0,0,20.660183,33.413887,39.93251)">
<stop offset="0" style="stop-color:rgb(32.156863%,66.666667%,89.019608%);stop-opacity:1;"/>
<stop offset="0.0167598" style="stop-color:rgb(32.156863%,66.666667%,89.019608%);stop-opacity:1;"/>
<stop offset="1" style="stop-color:rgb(14.509804%,28.235294%,63.921569%);stop-opacity:1;"/>
</radialGradient>
<radialGradient id="radial36" gradientUnits="userSpaceOnUse" cx="0" cy="0" fx="0" fy="0" r="1" gradientTransform="matrix(20.569958,0,0,20.660183,33.413887,39.93251)">
<stop offset="0" style="stop-color:rgb(32.156863%,66.666667%,89.019608%);stop-opacity:1;"/>
<stop offset="0.0167598" style="stop-color:rgb(32.156863%,66.666667%,89.019608%);stop-opacity:1;"/>
<stop offset="1" style="stop-color:rgb(14.509804%,28.235294%,63.921569%);stop-opacity:1;"/>
</radialGradient>
</defs>
<g id="surface1">
<path style=" stroke:none;fill-rule:nonzero;fill:rgb(9.019608%,9.019608%,9.019608%);fill-opacity:1;" d="M 63.640625 30.554688 L 66.703125 30.554688 L 66.703125 21.59375 L 69.949219 21.59375 L 69.949219 19.253906 L 60.378906 19.253906 L 60.378906 21.59375 L 63.640625 21.59375 Z M 63.640625 30.554688 "/>
<path style=" stroke:none;fill-rule:nonzero;fill:rgb(9.019608%,9.019608%,9.019608%);fill-opacity:1;" d="M 73.617188 30.601562 C 74.238281 30.601562 74.875 30.597656 75.535156 30.59375 C 76.191406 30.585938 76.839844 30.570312 77.472656 30.542969 C 78.109375 30.515625 78.695312 30.476562 79.226562 30.421875 L 79.097656 28.226562 L 74.875 28.226562 C 74.632812 28.226562 74.453125 28.164062 74.328125 28.039062 C 74.203125 27.914062 74.140625 27.742188 74.140625 27.523438 L 74.140625 25.769531 L 78.492188 25.769531 L 78.492188 23.691406 L 74.140625 23.691406 L 74.140625 22.28125 C 74.140625 22.0625 74.203125 21.890625 74.328125 21.765625 C 74.453125 21.640625 74.632812 21.578125 74.875 21.578125 L 79.097656 21.578125 L 79.226562 19.382812 C 78.695312 19.316406 78.109375 19.273438 77.472656 19.242188 C 76.839844 19.21875 76.191406 19.203125 75.535156 19.203125 L 73.617188 19.203125 C 72.867188 19.203125 72.253906 19.425781 71.785156 19.867188 C 71.308594 20.308594 71.074219 20.894531 71.074219 21.625 L 71.074219 28.179688 C 71.074219 28.898438 71.308594 29.484375 71.785156 29.929688 C 72.253906 30.378906 72.867188 30.601562 73.617188 30.601562 "/>
<path style=" stroke:none;fill-rule:nonzero;fill:rgb(9.019608%,9.019608%,9.019608%);fill-opacity:1;" d="M 82.863281 30.554688 L 85.128906 25.625 L 85.195312 25.625 L 87.460938 30.554688 L 90.527344 30.554688 L 87.65625 24.773438 L 90.3125 19.253906 L 87.265625 19.253906 L 85.214844 23.855469 L 85.113281 23.855469 L 83.074219 19.253906 L 80.027344 19.253906 L 82.667969 24.773438 L 79.796875 30.554688 Z M 82.863281 30.554688 "/>
<path style=" stroke:none;fill-rule:nonzero;fill:rgb(9.019608%,9.019608%,9.019608%);fill-opacity:1;" d="M 70.652344 45.609375 L 70.652344 34.308594 L 61.210938 34.308594 L 61.210938 45.609375 L 64.273438 45.609375 L 64.273438 36.371094 L 67.585938 36.371094 L 67.585938 45.609375 Z M 70.652344 45.609375 "/>
<path style=" stroke:none;fill-rule:nonzero;fill:rgb(9.019608%,9.019608%,9.019608%);fill-opacity:1;" d="M 78.519531 38.867188 C 78.433594 39.09375 78.292969 39.246094 78.085938 39.328125 C 77.878906 39.410156 77.585938 39.457031 77.203125 39.46875 L 75.785156 39.46875 L 75.785156 36.375 C 76.222656 36.375 76.695312 36.371094 77.203125 36.371094 C 77.585938 36.371094 77.878906 36.414062 78.085938 36.496094 C 78.292969 36.578125 78.433594 36.734375 78.519531 36.960938 C 78.597656 37.191406 78.640625 37.511719 78.640625 37.929688 C 78.640625 38.332031 78.597656 38.644531 78.519531 38.867188 M 79.9375 34.480469 C 79.300781 34.257812 78.417969 34.144531 77.285156 34.144531 C 76.570312 34.144531 75.960938 34.148438 75.460938 34.152344 C 74.960938 34.160156 74.496094 34.171875 74.074219 34.195312 C 73.648438 34.214844 73.199219 34.253906 72.722656 34.308594 L 72.722656 45.609375 L 75.785156 45.609375 L 75.785156 41.566406 C 75.902344 41.582031 76.019531 41.59375 76.136719 41.605469 C 76.652344 41.652344 77.171875 41.679688 77.695312 41.679688 C 78.683594 41.679688 79.472656 41.570312 80.058594 41.351562 C 80.644531 41.132812 81.066406 40.753906 81.324219 40.210938 C 81.578125 39.671875 81.707031 38.910156 81.707031 37.929688 C 81.707031 36.945312 81.570312 36.179688 81.296875 35.632812 C 81.027344 35.089844 80.570312 34.703125 79.9375 34.480469 "/>
<path style=" stroke:none;fill-rule:nonzero;fill:rgb(9.019608%,9.019608%,9.019608%);fill-opacity:1;" d="M 86.074219 37.78125 C 86.183594 37.265625 86.371094 36.914062 86.636719 36.714844 C 86.902344 36.519531 87.277344 36.421875 87.753906 36.421875 C 88.234375 36.421875 88.605469 36.519531 88.871094 36.714844 C 89.136719 36.914062 89.320312 37.265625 89.425781 37.78125 C 89.527344 38.292969 89.582031 39.019531 89.582031 39.957031 C 89.582031 40.898438 89.527344 41.625 89.425781 42.136719 C 89.320312 42.648438 89.136719 43.003906 88.871094 43.203125 C 88.605469 43.398438 88.234375 43.496094 87.753906 43.496094 C 87.277344 43.496094 86.902344 43.398438 86.636719 43.203125 C 86.371094 43.003906 86.183594 42.648438 86.074219 42.136719 C 85.964844 41.625 85.910156 40.898438 85.910156 39.957031 C 85.910156 39.019531 85.964844 38.292969 86.074219 37.78125 M 85.398438 45.558594 C 86.046875 45.746094 86.832031 45.835938 87.753906 45.835938 C 88.6875 45.835938 89.476562 45.746094 90.117188 45.558594 C 90.761719 45.375 91.28125 45.058594 91.683594 44.617188 C 92.085938 44.175781 92.375 43.574219 92.546875 42.816406 C 92.722656 42.058594 92.808594 41.105469 92.808594 39.957031 C 92.808594 38.800781 92.722656 37.84375 92.546875 37.09375 C 92.375 36.339844 92.085938 35.742188 91.683594 35.300781 C 91.28125 34.859375 90.761719 34.542969 90.117188 34.359375 C 89.476562 34.171875 88.6875 34.078125 87.753906 34.078125 C 86.832031 34.078125 86.046875 34.171875 85.398438 34.359375 C 84.75 34.542969 84.226562 34.859375 83.824219 35.300781 C 83.421875 35.742188 83.132812 36.339844 82.960938 37.09375 C 82.785156 37.84375 82.699219 38.800781 82.699219 39.957031 C 82.699219 41.105469 82.785156 42.058594 82.960938 42.816406 C 83.132812 43.574219 83.421875 44.175781 83.824219 44.617188 C 84.226562 45.058594 84.75 45.375 85.398438 45.558594 "/>
<path style=" stroke:none;fill-rule:nonzero;fill:rgb(9.019608%,9.019608%,9.019608%);fill-opacity:1;" d="M 97.046875 38.417969 C 97.148438 38.058594 97.320312 37.78125 97.570312 37.59375 C 97.820312 37.402344 98.179688 37.269531 98.648438 37.199219 C 98.785156 37.179688 98.9375 37.160156 99.105469 37.144531 L 99.105469 42.316406 C 98.9375 42.304688 98.785156 42.289062 98.648438 42.265625 C 98.179688 42.203125 97.820312 42.078125 97.570312 41.898438 C 97.320312 41.71875 97.148438 41.460938 97.046875 41.121094 C 96.949219 40.78125 96.902344 40.347656 96.902344 39.8125 C 96.902344 39.242188 96.949219 38.78125 97.046875 38.417969 M 103.398438 37.59375 C 103.65625 37.78125 103.832031 38.058594 103.929688 38.417969 C 104.027344 38.78125 104.074219 39.242188 104.074219 39.8125 C 104.074219 40.347656 104.027344 40.78125 103.929688 41.121094 C 103.832031 41.460938 103.65625 41.71875 103.398438 41.898438 C 103.144531 42.078125 102.78125 42.203125 102.316406 42.265625 C 102.1875 42.285156 102.042969 42.300781 101.890625 42.3125 L 101.890625 37.148438 C 102.042969 37.164062 102.1875 37.179688 102.316406 37.199219 C 102.78125 37.269531 103.144531 37.402344 103.398438 37.59375 M 97.351562 44.324219 C 97.824219 44.410156 98.363281 44.472656 98.957031 44.511719 L 98.957031 45.921875 L 102.023438 45.921875 L 102.023438 44.511719 C 102.613281 44.472656 103.148438 44.410156 103.617188 44.324219 C 104.464844 44.164062 105.152344 43.90625 105.675781 43.554688 C 106.195312 43.199219 106.574219 42.710938 106.808594 42.09375 C 107.039062 41.480469 107.15625 40.71875 107.15625 39.8125 C 107.15625 38.859375 107.039062 38.074219 106.808594 37.445312 C 106.574219 36.816406 106.195312 36.3125 105.675781 35.9375 C 105.152344 35.5625 104.464844 35.296875 103.617188 35.144531 C 103.148438 35.058594 102.613281 35 102.023438 34.960938 L 102.023438 33.539062 L 98.957031 33.539062 L 98.957031 34.960938 C 98.363281 35 97.824219 35.058594 97.351562 35.144531 C 96.496094 35.296875 95.816406 35.5625 95.304688 35.9375 C 94.792969 36.3125 94.421875 36.816406 94.1875 37.445312 C 93.953125 38.074219 93.835938 38.859375 93.835938 39.8125 C 93.835938 40.71875 93.953125 41.480469 94.1875 42.09375 C 94.421875 42.710938 94.792969 43.199219 95.304688 43.554688 C 95.816406 43.90625 96.496094 44.164062 97.351562 44.324219 "/>
<path style=" stroke:none;fill-rule:nonzero;fill:rgb(9.019608%,9.019608%,9.019608%);fill-opacity:1;" d="M 69.507812 56.703125 C 69.324219 56.277344 69.121094 55.933594 68.898438 55.679688 C 68.675781 55.421875 68.410156 55.230469 68.097656 55.105469 C 67.789062 54.980469 67.402344 54.882812 66.933594 54.820312 L 66.933594 54.71875 C 67.378906 54.664062 67.75 54.574219 68.042969 54.441406 C 68.335938 54.3125 68.582031 54.121094 68.785156 53.875 C 68.984375 53.632812 69.167969 53.3125 69.328125 52.917969 C 69.492188 52.523438 69.660156 52.039062 69.835938 51.460938 C 70.007812 50.882812 70.222656 50.183594 70.472656 49.367188 L 67.371094 49.367188 C 67.144531 50.21875 66.949219 50.925781 66.785156 51.492188 C 66.625 52.0625 66.453125 52.511719 66.28125 52.84375 C 66.105469 53.179688 65.894531 53.414062 65.644531 53.558594 C 65.394531 53.699219 65.066406 53.769531 64.667969 53.769531 L 64.117188 53.769531 C 64.128906 53.707031 64.140625 53.644531 64.152344 53.582031 C 64.222656 53.171875 64.257812 52.773438 64.257812 52.378906 L 64.257812 49.367188 L 61.210938 49.367188 L 61.210938 60.664062 L 64.257812 60.664062 L 64.257812 56.882812 C 64.257812 56.566406 64.214844 56.210938 64.128906 55.824219 C 64.128906 55.824219 64.128906 55.820312 64.128906 55.816406 L 64.714844 55.816406 C 65.105469 55.816406 65.425781 55.878906 65.667969 56.007812 C 65.914062 56.132812 66.128906 56.363281 66.3125 56.703125 C 66.5 57.039062 66.6875 57.527344 66.875 58.167969 C 67.066406 58.804688 67.308594 59.640625 67.601562 60.664062 L 70.796875 60.664062 C 70.515625 59.738281 70.277344 58.953125 70.078125 58.304688 C 69.882812 57.664062 69.695312 57.128906 69.507812 56.703125 "/>
<path style=" stroke:none;fill-rule:nonzero;fill:rgb(9.019608%,9.019608%,9.019608%);fill-opacity:1;" d="M 78.234375 49.367188 L 76.144531 49.367188 C 74.40625 49.367188 73.476562 50.25 73.355469 52.015625 C 73.3125 52.542969 73.273438 53.023438 73.234375 53.46875 C 73.195312 53.910156 73.152344 54.320312 73.105469 54.695312 C 73.054688 55.070312 73.003906 55.414062 72.949219 55.726562 C 72.894531 56.039062 72.839844 56.320312 72.777344 56.578125 C 72.71875 56.835938 72.644531 57.066406 72.558594 57.273438 C 72.417969 57.679688 72.207031 57.945312 71.929688 58.070312 C 71.652344 58.195312 71.332031 58.289062 70.960938 58.355469 L 71.1875 60.730469 C 71.839844 60.828125 72.4375 60.816406 72.980469 60.695312 C 73.527344 60.578125 74 60.3125 74.410156 59.894531 C 74.816406 59.480469 75.140625 58.886719 75.378906 58.109375 C 75.5 57.773438 75.601562 57.386719 75.6875 56.953125 C 75.777344 56.523438 75.855469 56.0625 75.925781 55.5625 C 75.996094 55.066406 76.054688 54.542969 76.105469 53.992188 C 76.152344 53.441406 76.207031 52.867188 76.261719 52.28125 C 76.292969 51.710938 76.601562 51.429688 77.1875 51.429688 L 78.234375 51.429688 L 78.234375 60.664062 L 81.296875 60.664062 L 81.296875 49.367188 Z M 78.234375 49.367188 "/>
<path style=" stroke:none;fill-rule:nonzero;fill:rgb(9.019608%,9.019608%,9.019608%);fill-opacity:1;" d="M 86.941406 55.195312 C 86.808594 55.4375 86.683594 55.695312 86.5625 55.972656 C 86.445312 56.25 86.335938 56.53125 86.238281 56.816406 L 86.140625 56.816406 C 86.183594 56.523438 86.21875 56.226562 86.246094 55.929688 C 86.273438 55.636719 86.285156 55.351562 86.285156 55.078125 L 86.285156 49.367188 L 83.386719 49.367188 L 83.386719 60.664062 L 86.320312 60.664062 L 89.582031 54.753906 C 89.722656 54.492188 89.847656 54.226562 89.957031 53.957031 C 90.066406 53.691406 90.160156 53.414062 90.25 53.132812 L 90.363281 53.132812 C 90.320312 53.40625 90.28125 53.679688 90.25 53.949219 C 90.214844 54.222656 90.199219 54.5 90.199219 54.785156 L 90.199219 60.664062 L 93.101562 60.664062 L 93.101562 49.367188 L 90.183594 49.367188 Z M 86.941406 55.195312 "/>
<path style=" stroke:none;fill-rule:nonzero;fill:rgb(9.019608%,9.019608%,9.019608%);fill-opacity:1;" d="M 107.175781 49.367188 L 104.386719 49.367188 C 103.722656 49.367188 103.332031 49.6875 103.210938 50.332031 L 102.136719 55.34375 C 102.082031 55.617188 102.039062 55.890625 102.003906 56.167969 C 101.972656 56.449219 101.933594 56.730469 101.890625 57.011719 L 101.710938 57.011719 C 101.679688 56.730469 101.644531 56.449219 101.605469 56.167969 C 101.566406 55.890625 101.523438 55.621094 101.46875 55.359375 L 100.375 50.332031 C 100.246094 49.6875 99.851562 49.367188 99.199219 49.367188 L 96.460938 49.367188 C 95.765625 49.367188 95.402344 49.726562 95.367188 50.445312 L 94.976562 60.664062 L 97.75 60.664062 L 98.058594 51.691406 L 98.320312 51.691406 L 99.753906 58.027344 C 99.886719 58.660156 100.289062 58.976562 100.960938 58.976562 L 102.65625 58.976562 C 103.339844 58.976562 103.734375 58.660156 103.832031 58.027344 L 105.265625 51.691406 L 105.527344 51.691406 L 105.886719 60.664062 L 108.675781 60.664062 L 108.25 50.445312 C 108.226562 49.726562 107.871094 49.367188 107.175781 49.367188 "/>
<path style=" stroke:none;fill-rule:nonzero;fill:rgb(9.019608%,9.019608%,9.019608%);fill-opacity:1;" d="M 113.777344 55.769531 L 114.511719 52.867188 C 114.554688 52.683594 114.597656 52.484375 114.632812 52.273438 C 114.671875 52.058594 114.703125 51.859375 114.722656 51.671875 L 115.164062 51.671875 C 115.195312 51.859375 115.230469 52.058594 115.261719 52.273438 C 115.292969 52.484375 115.332031 52.683594 115.375 52.867188 L 116.109375 55.769531 Z M 117.015625 49.578125 C 116.824219 49.4375 116.605469 49.367188 116.351562 49.367188 L 113.535156 49.367188 C 113.28125 49.367188 113.0625 49.4375 112.871094 49.578125 C 112.683594 49.71875 112.554688 49.914062 112.488281 50.167969 L 109.40625 60.664062 L 112.539062 60.664062 L 113.21875 57.980469 L 116.667969 57.980469 L 117.347656 60.664062 L 120.480469 60.664062 L 117.398438 50.167969 C 117.332031 49.914062 117.203125 49.71875 117.015625 49.578125 "/>
<path style=" stroke:none;fill-rule:nonzero;fill:rgb(9.019608%,9.019608%,9.019608%);fill-opacity:1;" d="M 129.25 49.367188 L 119.679688 49.367188 L 119.679688 51.707031 L 122.941406 51.707031 L 122.941406 60.664062 L 126.007812 60.664062 L 126.007812 51.707031 L 129.25 51.707031 Z M 129.25 49.367188 "/>
<path style=" stroke:none;fill-rule:nonzero;fill:url(#radial0);" d="M 32.378906 19.210938 L 32.378906 30.898438 C 28.179688 31.359375 24.84375 34.710938 24.382812 38.929688 L 12.75 38.929688 L 12.75 40.933594 L 24.382812 40.933594 C 24.84375 45.15625 28.179688 48.507812 32.378906 48.96875 L 32.378906 60.652344 L 34.375 60.652344 L 34.375 48.96875 C 38.578125 48.507812 41.914062 45.15625 42.375 40.933594 L 54.007812 40.933594 L 54.007812 38.929688 L 42.375 38.929688 C 41.914062 34.710938 38.578125 31.359375 34.375 30.898438 L 34.375 19.210938 Z M 32.378906 32.851562 L 34.375 32.851562 L 34.375 39.835938 L 32.378906 39.835938 Z M 38.457031 39.933594 C 38.457031 37.902344 37.269531 36.148438 35.554688 35.328125 L 35.554688 33.175781 C 38.394531 34.097656 40.449219 36.773438 40.449219 39.933594 C 40.449219 43.855469 37.285156 47.035156 33.378906 47.035156 C 29.472656 47.035156 26.308594 43.855469 26.308594 39.933594 C 26.308594 36.773438 28.363281 34.097656 31.203125 33.175781 L 31.203125 35.328125 C 29.488281 36.148438 28.300781 37.902344 28.300781 39.933594 C 28.300781 42.742188 30.578125 45.03125 33.378906 45.03125 C 36.179688 45.03125 38.457031 42.742188 38.457031 39.933594 "/>
<path style=" stroke:none;fill-rule:nonzero;fill:rgb(23.529412%,43.921569%,75.294118%);fill-opacity:1;" d="M 45.089844 44.945312 C 44.589844 46.125 43.910156 47.214844 43.097656 48.179688 L 45.726562 50.824219 L 54 50.824219 L 54 52.828125 L 47.71875 52.828125 L 53.929688 59.117188 L 53.929688 60.574219 L 52.558594 60.574219 L 46.132812 54.066406 L 46.132812 60.535156 L 44.140625 60.535156 L 44.140625 52.0625 L 41.691406 49.605469 C 40.699219 50.464844 39.582031 51.179688 38.359375 51.699219 L 38.359375 60.574219 L 36.363281 60.574219 L 36.363281 50.613281 C 40.054688 49.570312 42.964844 46.644531 44.007812 42.941406 L 54 42.941406 L 54 44.945312 Z M 45.089844 44.945312 "/>
<path style=" stroke:none;fill-rule:nonzero;fill:rgb(23.529412%,43.921569%,75.294118%);fill-opacity:1;" d="M 30.449219 50.609375 C 26.765625 49.5625 23.859375 46.640625 22.820312 42.941406 L 12.828125 42.941406 L 12.828125 44.945312 L 21.738281 44.945312 C 22.242188 46.125 22.917969 47.214844 23.730469 48.179688 L 21.101562 50.824219 L 12.828125 50.824219 L 12.828125 52.828125 L 19.105469 52.828125 L 12.828125 59.082031 L 12.828125 60.574219 L 14.15625 60.574219 L 20.691406 54.066406 L 20.691406 60.535156 L 22.6875 60.535156 L 22.6875 52.0625 L 25.132812 49.605469 C 26.125 50.464844 27.25 51.179688 28.46875 51.699219 L 28.46875 60.574219 L 30.449219 60.574219 Z M 30.449219 50.609375 "/>
<path style=" stroke:none;fill-rule:nonzero;fill:rgb(9.411765%,9.411765%,9.019608%);fill-opacity:1;" d="M 45.089844 44.945312 C 44.589844 46.125 43.910156 47.214844 43.097656 48.179688 L 45.726562 50.824219 L 54 50.824219 L 54 52.828125 L 47.71875 52.828125 L 53.929688 59.117188 L 53.929688 60.574219 L 52.558594 60.574219 L 46.132812 54.066406 L 46.132812 60.535156 L 44.140625 60.535156 L 44.140625 52.0625 L 41.691406 49.605469 C 40.699219 50.464844 39.582031 51.179688 38.359375 51.699219 L 38.359375 60.574219 L 36.363281 60.574219 L 36.363281 50.613281 C 40.054688 49.570312 42.964844 46.644531 44.007812 42.941406 L 54 42.941406 L 54 44.945312 Z M 45.089844 44.945312 "/>
<path style=" stroke:none;fill-rule:nonzero;fill:rgb(9.411765%,9.411765%,9.019608%);fill-opacity:1;" d="M 45.089844 44.945312 C 44.589844 46.125 43.910156 47.214844 43.097656 48.179688 L 45.726562 50.824219 L 54 50.824219 L 54 52.828125 L 47.71875 52.828125 L 53.929688 59.117188 L 53.929688 60.574219 L 52.558594 60.574219 L 46.132812 54.066406 L 46.132812 60.535156 L 44.140625 60.535156 L 44.140625 52.0625 L 41.691406 49.605469 C 40.699219 50.464844 39.582031 51.179688 38.359375 51.699219 L 38.359375 60.574219 L 36.363281 60.574219 L 36.363281 50.613281 C 40.054688 49.570312 42.964844 46.644531 44.007812 42.941406 L 54 42.941406 L 54 44.945312 Z M 45.089844 44.945312 "/>
<path style=" stroke:none;fill-rule:nonzero;fill:rgb(9.411765%,9.411765%,9.019608%);fill-opacity:1;" d="M 45.089844 44.945312 C 44.589844 46.125 43.910156 47.214844 43.097656 48.179688 L 45.726562 50.824219 L 54 50.824219 L 54 52.828125 L 47.71875 52.828125 L 53.929688 59.117188 L 53.929688 60.574219 L 52.558594 60.574219 L 46.132812 54.066406 L 46.132812 60.535156 L 44.140625 60.535156 L 44.140625 52.0625 L 41.691406 49.605469 C 40.699219 50.464844 39.582031 51.179688 38.359375 51.699219 L 38.359375 60.574219 L 36.363281 60.574219 L 36.363281 50.613281 C 40.054688 49.570312 42.964844 46.644531 44.007812 42.941406 L 54 42.941406 L 54 44.945312 Z M 45.089844 44.945312 "/>
<path style=" stroke:none;fill-rule:nonzero;fill:rgb(9.411765%,9.411765%,9.019608%);fill-opacity:1;" d="M 30.449219 50.609375 C 26.765625 49.5625 23.859375 46.640625 22.820312 42.941406 L 12.828125 42.941406 L 12.828125 44.945312 L 21.738281 44.945312 C 22.242188 46.125 22.917969 47.214844 23.730469 48.179688 L 21.101562 50.824219 L 12.828125 50.824219 L 12.828125 52.828125 L 19.105469 52.828125 L 12.828125 59.082031 L 12.828125 60.574219 L 14.15625 60.574219 L 20.691406 54.066406 L 20.691406 60.535156 L 22.6875 60.535156 L 22.6875 52.0625 L 25.132812 49.605469 C 26.125 50.464844 27.25 51.179688 28.46875 51.699219 L 28.46875 60.574219 L 30.449219 60.574219 Z M 30.449219 50.609375 "/>
<path style=" stroke:none;fill-rule:nonzero;fill:rgb(9.411765%,9.411765%,9.019608%);fill-opacity:1;" d="M 30.449219 50.609375 C 26.765625 49.5625 23.859375 46.640625 22.820312 42.941406 L 12.828125 42.941406 L 12.828125 44.945312 L 21.738281 44.945312 C 22.242188 46.125 22.917969 47.214844 23.730469 48.179688 L 21.101562 50.824219 L 12.828125 50.824219 L 12.828125 52.828125 L 19.105469 52.828125 L 12.828125 59.082031 L 12.828125 60.574219 L 14.15625 60.574219 L 20.691406 54.066406 L 20.691406 60.535156 L 22.6875 60.535156 L 22.6875 52.0625 L 25.132812 49.605469 C 26.125 50.464844 27.25 51.179688 28.46875 51.699219 L 28.46875 60.574219 L 30.449219 60.574219 Z M 30.449219 50.609375 "/>
<path style=" stroke:none;fill-rule:nonzero;fill:rgb(9.411765%,9.411765%,9.019608%);fill-opacity:1;" d="M 30.449219 50.609375 C 26.765625 49.5625 23.859375 46.640625 22.820312 42.941406 L 12.828125 42.941406 L 12.828125 44.945312 L 21.738281 44.945312 C 22.242188 46.125 22.917969 47.214844 23.730469 48.179688 L 21.101562 50.824219 L 12.828125 50.824219 L 12.828125 52.828125 L 19.105469 52.828125 L 12.828125 59.082031 L 12.828125 60.574219 L 14.15625 60.574219 L 20.691406 54.066406 L 20.691406 60.535156 L 22.6875 60.535156 L 22.6875 52.0625 L 25.132812 49.605469 C 26.125 50.464844 27.25 51.179688 28.46875 51.699219 L 28.46875 60.574219 L 30.449219 60.574219 Z M 30.449219 50.609375 "/>
<path style=" stroke:none;fill-rule:nonzero;fill:rgb(23.529412%,43.921569%,75.294118%);fill-opacity:1;" d="M 45.726562 29.042969 L 43.097656 31.683594 C 43.910156 32.648438 44.589844 33.738281 45.089844 34.921875 L 54 34.921875 L 54 36.925781 L 44.007812 36.925781 C 42.964844 33.21875 40.054688 30.296875 36.363281 29.25 L 36.363281 19.289062 L 38.359375 19.289062 L 38.359375 28.164062 C 39.582031 28.6875 40.699219 29.398438 41.691406 30.261719 L 44.140625 27.804688 L 44.140625 19.332031 L 46.132812 19.332031 L 46.132812 25.800781 L 52.5625 19.289062 L 53.929688 19.289062 L 53.929688 20.746094 L 47.71875 27.039062 L 54 27.039062 L 54 29.042969 Z M 45.726562 29.042969 "/>
<path style=" stroke:none;fill-rule:nonzero;fill:rgb(23.529412%,43.921569%,75.294118%);fill-opacity:1;" d="M 30.460938 27.503906 L 30.460938 29.25 C 26.773438 30.296875 23.859375 33.21875 22.820312 36.925781 L 12.828125 36.925781 L 12.828125 34.921875 L 21.738281 34.921875 C 22.242188 33.738281 22.917969 32.648438 23.730469 31.683594 L 21.101562 29.042969 L 12.828125 29.042969 L 12.828125 27.039062 L 19.105469 27.039062 L 12.828125 20.734375 L 12.828125 19.289062 L 14.210938 19.289062 L 20.691406 25.800781 L 20.691406 19.332031 L 22.6875 19.332031 L 22.6875 27.804688 L 25.132812 30.261719 C 26.125 29.398438 27.25 28.6875 28.46875 28.164062 L 28.46875 19.289062 L 30.460938 19.289062 Z M 30.460938 27.503906 "/>
<path style=" stroke:none;fill-rule:nonzero;fill:rgb(9.411765%,9.411765%,9.019608%);fill-opacity:1;" d="M 45.726562 29.042969 L 43.097656 31.683594 C 43.910156 32.648438 44.589844 33.738281 45.089844 34.921875 L 54 34.921875 L 54 36.925781 L 44.007812 36.925781 C 42.964844 33.21875 40.054688 30.296875 36.363281 29.25 L 36.363281 19.289062 L 38.359375 19.289062 L 38.359375 28.164062 C 39.582031 28.6875 40.699219 29.398438 41.691406 30.261719 L 44.140625 27.804688 L 44.140625 19.332031 L 46.132812 19.332031 L 46.132812 25.800781 L 52.5625 19.289062 L 53.929688 19.289062 L 53.929688 20.746094 L 47.71875 27.039062 L 54 27.039062 L 54 29.042969 Z M 45.726562 29.042969 "/>
<path style=" stroke:none;fill-rule:nonzero;fill:rgb(9.411765%,9.411765%,9.019608%);fill-opacity:1;" d="M 45.726562 29.042969 L 43.097656 31.683594 C 43.910156 32.648438 44.589844 33.738281 45.089844 34.921875 L 54 34.921875 L 54 36.925781 L 44.007812 36.925781 C 42.964844 33.21875 40.054688 30.296875 36.363281 29.25 L 36.363281 19.289062 L 38.359375 19.289062 L 38.359375 28.164062 C 39.582031 28.6875 40.699219 29.398438 41.691406 30.261719 L 44.140625 27.804688 L 44.140625 19.332031 L 46.132812 19.332031 L 46.132812 25.800781 L 52.5625 19.289062 L 53.929688 19.289062 L 53.929688 20.746094 L 47.71875 27.039062 L 54 27.039062 L 54 29.042969 Z M 45.726562 29.042969 "/>
<path style=" stroke:none;fill-rule:nonzero;fill:rgb(9.411765%,9.411765%,9.019608%);fill-opacity:1;" d="M 45.726562 29.042969 L 43.097656 31.683594 C 43.910156 32.648438 44.589844 33.738281 45.089844 34.921875 L 54 34.921875 L 54 36.925781 L 44.007812 36.925781 C 42.964844 33.21875 40.054688 30.296875 36.363281 29.25 L 36.363281 19.289062 L 38.359375 19.289062 L 38.359375 28.164062 C 39.582031 28.6875 40.699219 29.398438 41.691406 30.261719 L 44.140625 27.804688 L 44.140625 19.332031 L 46.132812 19.332031 L 46.132812 25.800781 L 52.5625 19.289062 L 53.929688 19.289062 L 53.929688 20.746094 L 47.71875 27.039062 L 54 27.039062 L 54 29.042969 Z M 45.726562 29.042969 "/>
<path style=" stroke:none;fill-rule:nonzero;fill:rgb(9.411765%,9.411765%,9.019608%);fill-opacity:1;" d="M 30.460938 27.503906 L 30.460938 29.25 C 26.773438 30.296875 23.859375 33.21875 22.820312 36.925781 L 12.828125 36.925781 L 12.828125 34.921875 L 21.738281 34.921875 C 22.242188 33.738281 22.917969 32.648438 23.730469 31.683594 L 21.101562 29.042969 L 12.828125 29.042969 L 12.828125 27.039062 L 19.105469 27.039062 L 12.828125 20.734375 L 12.828125 19.289062 L 14.210938 19.289062 L 20.691406 25.800781 L 20.691406 19.332031 L 22.6875 19.332031 L 22.6875 27.804688 L 25.132812 30.261719 C 26.125 29.398438 27.25 28.6875 28.46875 28.164062 L 28.46875 19.289062 L 30.460938 19.289062 Z M 30.460938 27.503906 "/>
<path style=" stroke:none;fill-rule:nonzero;fill:rgb(9.411765%,9.411765%,9.019608%);fill-opacity:1;" d="M 30.460938 27.503906 L 30.460938 29.25 C 26.773438 30.296875 23.859375 33.21875 22.820312 36.925781 L 12.828125 36.925781 L 12.828125 34.921875 L 21.738281 34.921875 C 22.242188 33.738281 22.917969 32.648438 23.730469 31.683594 L 21.101562 29.042969 L 12.828125 29.042969 L 12.828125 27.039062 L 19.105469 27.039062 L 12.828125 20.734375 L 12.828125 19.289062 L 14.210938 19.289062 L 20.691406 25.800781 L 20.691406 19.332031 L 22.6875 19.332031 L 22.6875 27.804688 L 25.132812 30.261719 C 26.125 29.398438 27.25 28.6875 28.46875 28.164062 L 28.46875 19.289062 L 30.460938 19.289062 Z M 30.460938 27.503906 "/>
<path style=" stroke:none;fill-rule:nonzero;fill:rgb(9.411765%,9.411765%,9.019608%);fill-opacity:1;" d="M 30.460938 27.503906 L 30.460938 29.25 C 26.773438 30.296875 23.859375 33.21875 22.820312 36.925781 L 12.828125 36.925781 L 12.828125 34.921875 L 21.738281 34.921875 C 22.242188 33.738281 22.917969 32.648438 23.730469 31.683594 L 21.101562 29.042969 L 12.828125 29.042969 L 12.828125 27.039062 L 19.105469 27.039062 L 12.828125 20.734375 L 12.828125 19.289062 L 14.210938 19.289062 L 20.691406 25.800781 L 20.691406 19.332031 L 22.6875 19.332031 L 22.6875 27.804688 L 25.132812 30.261719 C 26.125 29.398438 27.25 28.6875 28.46875 28.164062 L 28.46875 19.289062 L 30.460938 19.289062 Z M 30.460938 27.503906 "/>
<path style=" stroke:none;fill-rule:nonzero;fill:url(#radial1);" d="M 44.007812 42.941406 C 42.964844 46.644531 40.054688 49.570312 36.363281 50.613281 L 36.363281 60.574219 L 38.359375 60.574219 L 38.359375 51.699219 C 39.582031 51.179688 40.699219 50.464844 41.691406 49.605469 L 44.140625 52.0625 L 44.140625 60.535156 L 46.132812 60.535156 L 46.132812 54.066406 L 52.558594 60.574219 L 53.929688 60.574219 L 53.929688 59.117188 L 47.71875 52.828125 L 54 52.828125 L 54 50.824219 L 45.726562 50.824219 L 43.097656 48.179688 C 43.910156 47.214844 44.589844 46.125 45.089844 44.945312 L 54 44.945312 L 54 42.941406 Z M 44.007812 42.941406 "/>
<path style=" stroke:none;fill-rule:nonzero;fill:url(#radial2);" d="M 44.007812 42.941406 C 42.964844 46.644531 40.054688 49.570312 36.363281 50.613281 L 36.363281 60.574219 L 38.359375 60.574219 L 38.359375 51.699219 C 39.582031 51.179688 40.699219 50.464844 41.691406 49.605469 L 44.140625 52.0625 L 44.140625 60.535156 L 46.132812 60.535156 L 46.132812 54.066406 L 52.558594 60.574219 L 53.929688 60.574219 L 53.929688 59.117188 L 47.71875 52.828125 L 54 52.828125 L 54 50.824219 L 45.726562 50.824219 L 43.097656 48.179688 C 43.910156 47.214844 44.589844 46.125 45.089844 44.945312 L 54 44.945312 L 54 42.941406 Z M 44.007812 42.941406 "/>
<path style=" stroke:none;fill-rule:nonzero;fill:url(#radial3);" d="M 44.007812 42.941406 C 42.964844 46.644531 40.054688 49.570312 36.363281 50.613281 L 36.363281 60.574219 L 38.359375 60.574219 L 38.359375 51.699219 C 39.582031 51.179688 40.699219 50.464844 41.691406 49.605469 L 44.140625 52.0625 L 44.140625 60.535156 L 46.132812 60.535156 L 46.132812 54.066406 L 52.558594 60.574219 L 53.929688 60.574219 L 53.929688 59.117188 L 47.71875 52.828125 L 54 52.828125 L 54 50.824219 L 45.726562 50.824219 L 43.097656 48.179688 C 43.910156 47.214844 44.589844 46.125 45.089844 44.945312 L 54 44.945312 L 54 42.941406 Z M 44.007812 42.941406 "/>
<path style=" stroke:none;fill-rule:nonzero;fill:url(#radial4);" d="M 12.828125 42.941406 L 12.828125 44.945312 L 21.738281 44.945312 C 22.242188 46.125 22.917969 47.214844 23.730469 48.179688 L 21.101562 50.824219 L 12.828125 50.824219 L 12.828125 52.828125 L 19.105469 52.828125 L 12.828125 59.082031 L 12.828125 60.574219 L 14.15625 60.574219 L 20.691406 54.066406 L 20.691406 60.535156 L 22.6875 60.535156 L 22.6875 52.0625 L 25.132812 49.605469 C 26.125 50.464844 27.25 51.179688 28.46875 51.699219 L 28.46875 60.574219 L 30.449219 60.574219 L 30.449219 50.609375 C 26.765625 49.5625 23.859375 46.640625 22.820312 42.941406 Z M 12.828125 42.941406 "/>
<path style=" stroke:none;fill-rule:nonzero;fill:url(#radial5);" d="M 12.828125 42.941406 L 12.828125 44.945312 L 21.738281 44.945312 C 22.242188 46.125 22.917969 47.214844 23.730469 48.179688 L 21.101562 50.824219 L 12.828125 50.824219 L 12.828125 52.828125 L 19.105469 52.828125 L 12.828125 59.082031 L 12.828125 60.574219 L 14.15625 60.574219 L 20.691406 54.066406 L 20.691406 60.535156 L 22.6875 60.535156 L 22.6875 52.0625 L 25.132812 49.605469 C 26.125 50.464844 27.25 51.179688 28.46875 51.699219 L 28.46875 60.574219 L 30.449219 60.574219 L 30.449219 50.609375 C 26.765625 49.5625 23.859375 46.640625 22.820312 42.941406 Z M 12.828125 42.941406 "/>
<path style=" stroke:none;fill-rule:nonzero;fill:url(#radial6);" d="M 12.828125 42.941406 L 12.828125 44.945312 L 21.738281 44.945312 C 22.242188 46.125 22.917969 47.214844 23.730469 48.179688 L 21.101562 50.824219 L 12.828125 50.824219 L 12.828125 52.828125 L 19.105469 52.828125 L 12.828125 59.082031 L 12.828125 60.574219 L 14.15625 60.574219 L 20.691406 54.066406 L 20.691406 60.535156 L 22.6875 60.535156 L 22.6875 52.0625 L 25.132812 49.605469 C 26.125 50.464844 27.25 51.179688 28.46875 51.699219 L 28.46875 60.574219 L 30.449219 60.574219 L 30.449219 50.609375 C 26.765625 49.5625 23.859375 46.640625 22.820312 42.941406 Z M 12.828125 42.941406 "/>
<path style=" stroke:none;fill-rule:nonzero;fill:url(#radial7);" d="M 44.007812 42.941406 C 42.964844 46.644531 40.054688 49.570312 36.363281 50.613281 L 36.363281 60.574219 L 38.359375 60.574219 L 38.359375 51.699219 C 39.582031 51.179688 40.699219 50.464844 41.691406 49.605469 L 44.140625 52.0625 L 44.140625 60.535156 L 46.132812 60.535156 L 46.132812 54.066406 L 52.558594 60.574219 L 53.929688 60.574219 L 53.929688 59.117188 L 47.71875 52.828125 L 54 52.828125 L 54 50.824219 L 45.726562 50.824219 L 43.097656 48.179688 C 43.910156 47.214844 44.589844 46.125 45.089844 44.945312 L 54 44.945312 L 54 42.941406 Z M 44.007812 42.941406 "/>
<path style=" stroke:none;fill-rule:nonzero;fill:url(#radial8);" d="M 44.007812 42.941406 C 42.964844 46.644531 40.054688 49.570312 36.363281 50.613281 L 36.363281 60.574219 L 38.359375 60.574219 L 38.359375 51.699219 C 39.582031 51.179688 40.699219 50.464844 41.691406 49.605469 L 44.140625 52.0625 L 44.140625 60.535156 L 46.132812 60.535156 L 46.132812 54.066406 L 52.558594 60.574219 L 53.929688 60.574219 L 53.929688 59.117188 L 47.71875 52.828125 L 54 52.828125 L 54 50.824219 L 45.726562 50.824219 L 43.097656 48.179688 C 43.910156 47.214844 44.589844 46.125 45.089844 44.945312 L 54 44.945312 L 54 42.941406 Z M 44.007812 42.941406 "/>
<path style=" stroke:none;fill-rule:nonzero;fill:url(#radial9);" d="M 44.007812 42.941406 C 42.964844 46.644531 40.054688 49.570312 36.363281 50.613281 L 36.363281 60.574219 L 38.359375 60.574219 L 38.359375 51.699219 C 39.582031 51.179688 40.699219 50.464844 41.691406 49.605469 L 44.140625 52.0625 L 44.140625 60.535156 L 46.132812 60.535156 L 46.132812 54.066406 L 52.558594 60.574219 L 53.929688 60.574219 L 53.929688 59.117188 L 47.71875 52.828125 L 54 52.828125 L 54 50.824219 L 45.726562 50.824219 L 43.097656 48.179688 C 43.910156 47.214844 44.589844 46.125 45.089844 44.945312 L 54 44.945312 L 54 42.941406 Z M 44.007812 42.941406 "/>
<path style=" stroke:none;fill-rule:nonzero;fill:url(#radial10);" d="M 12.828125 42.941406 L 12.828125 44.945312 L 21.738281 44.945312 C 22.242188 46.125 22.917969 47.214844 23.730469 48.179688 L 21.101562 50.824219 L 12.828125 50.824219 L 12.828125 52.828125 L 19.105469 52.828125 L 12.828125 59.082031 L 12.828125 60.574219 L 14.15625 60.574219 L 20.691406 54.066406 L 20.691406 60.535156 L 22.6875 60.535156 L 22.6875 52.0625 L 25.132812 49.605469 C 26.125 50.464844 27.25 51.179688 28.46875 51.699219 L 28.46875 60.574219 L 30.449219 60.574219 L 30.449219 50.609375 C 26.765625 49.5625 23.859375 46.640625 22.820312 42.941406 Z M 12.828125 42.941406 "/>
<path style=" stroke:none;fill-rule:nonzero;fill:url(#radial11);" d="M 12.828125 42.941406 L 12.828125 44.945312 L 21.738281 44.945312 C 22.242188 46.125 22.917969 47.214844 23.730469 48.179688 L 21.101562 50.824219 L 12.828125 50.824219 L 12.828125 52.828125 L 19.105469 52.828125 L 12.828125 59.082031 L 12.828125 60.574219 L 14.15625 60.574219 L 20.691406 54.066406 L 20.691406 60.535156 L 22.6875 60.535156 L 22.6875 52.0625 L 25.132812 49.605469 C 26.125 50.464844 27.25 51.179688 28.46875 51.699219 L 28.46875 60.574219 L 30.449219 60.574219 L 30.449219 50.609375 C 26.765625 49.5625 23.859375 46.640625 22.820312 42.941406 Z M 12.828125 42.941406 "/>
<path style=" stroke:none;fill-rule:nonzero;fill:url(#radial12);" d="M 12.828125 42.941406 L 12.828125 44.945312 L 21.738281 44.945312 C 22.242188 46.125 22.917969 47.214844 23.730469 48.179688 L 21.101562 50.824219 L 12.828125 50.824219 L 12.828125 52.828125 L 19.105469 52.828125 L 12.828125 59.082031 L 12.828125 60.574219 L 14.15625 60.574219 L 20.691406 54.066406 L 20.691406 60.535156 L 22.6875 60.535156 L 22.6875 52.0625 L 25.132812 49.605469 C 26.125 50.464844 27.25 51.179688 28.46875 51.699219 L 28.46875 60.574219 L 30.449219 60.574219 L 30.449219 50.609375 C 26.765625 49.5625 23.859375 46.640625 22.820312 42.941406 Z M 12.828125 42.941406 "/>
<path style=" stroke:none;fill-rule:nonzero;fill:url(#radial13);" d="M 44.007812 42.941406 C 42.964844 46.644531 40.054688 49.570312 36.363281 50.613281 L 36.363281 60.574219 L 38.359375 60.574219 L 38.359375 51.699219 C 39.582031 51.179688 40.699219 50.464844 41.691406 49.605469 L 44.140625 52.0625 L 44.140625 60.535156 L 46.132812 60.535156 L 46.132812 54.066406 L 52.558594 60.574219 L 53.929688 60.574219 L 53.929688 59.117188 L 47.71875 52.828125 L 54 52.828125 L 54 50.824219 L 45.726562 50.824219 L 43.097656 48.179688 C 43.910156 47.214844 44.589844 46.125 45.089844 44.945312 L 54 44.945312 L 54 42.941406 Z M 44.007812 42.941406 "/>
<path style=" stroke:none;fill-rule:nonzero;fill:url(#radial14);" d="M 44.007812 42.941406 C 42.964844 46.644531 40.054688 49.570312 36.363281 50.613281 L 36.363281 60.574219 L 38.359375 60.574219 L 38.359375 51.699219 C 39.582031 51.179688 40.699219 50.464844 41.691406 49.605469 L 44.140625 52.0625 L 44.140625 60.535156 L 46.132812 60.535156 L 46.132812 54.066406 L 52.558594 60.574219 L 53.929688 60.574219 L 53.929688 59.117188 L 47.71875 52.828125 L 54 52.828125 L 54 50.824219 L 45.726562 50.824219 L 43.097656 48.179688 C 43.910156 47.214844 44.589844 46.125 45.089844 44.945312 L 54 44.945312 L 54 42.941406 Z M 44.007812 42.941406 "/>
<path style=" stroke:none;fill-rule:nonzero;fill:url(#radial15);" d="M 44.007812 42.941406 C 42.964844 46.644531 40.054688 49.570312 36.363281 50.613281 L 36.363281 60.574219 L 38.359375 60.574219 L 38.359375 51.699219 C 39.582031 51.179688 40.699219 50.464844 41.691406 49.605469 L 44.140625 52.0625 L 44.140625 60.535156 L 46.132812 60.535156 L 46.132812 54.066406 L 52.558594 60.574219 L 53.929688 60.574219 L 53.929688 59.117188 L 47.71875 52.828125 L 54 52.828125 L 54 50.824219 L 45.726562 50.824219 L 43.097656 48.179688 C 43.910156 47.214844 44.589844 46.125 45.089844 44.945312 L 54 44.945312 L 54 42.941406 Z M 44.007812 42.941406 "/>
<path style=" stroke:none;fill-rule:nonzero;fill:url(#radial16);" d="M 12.828125 42.941406 L 12.828125 44.945312 L 21.738281 44.945312 C 22.242188 46.125 22.917969 47.214844 23.730469 48.179688 L 21.101562 50.824219 L 12.828125 50.824219 L 12.828125 52.828125 L 19.105469 52.828125 L 12.828125 59.082031 L 12.828125 60.574219 L 14.15625 60.574219 L 20.691406 54.066406 L 20.691406 60.535156 L 22.6875 60.535156 L 22.6875 52.0625 L 25.132812 49.605469 C 26.125 50.464844 27.25 51.179688 28.46875 51.699219 L 28.46875 60.574219 L 30.449219 60.574219 L 30.449219 50.609375 C 26.765625 49.5625 23.859375 46.640625 22.820312 42.941406 Z M 12.828125 42.941406 "/>
<path style=" stroke:none;fill-rule:nonzero;fill:url(#radial17);" d="M 12.828125 42.941406 L 12.828125 44.945312 L 21.738281 44.945312 C 22.242188 46.125 22.917969 47.214844 23.730469 48.179688 L 21.101562 50.824219 L 12.828125 50.824219 L 12.828125 52.828125 L 19.105469 52.828125 L 12.828125 59.082031 L 12.828125 60.574219 L 14.15625 60.574219 L 20.691406 54.066406 L 20.691406 60.535156 L 22.6875 60.535156 L 22.6875 52.0625 L 25.132812 49.605469 C 26.125 50.464844 27.25 51.179688 28.46875 51.699219 L 28.46875 60.574219 L 30.449219 60.574219 L 30.449219 50.609375 C 26.765625 49.5625 23.859375 46.640625 22.820312 42.941406 Z M 12.828125 42.941406 "/>
<path style=" stroke:none;fill-rule:nonzero;fill:url(#radial18);" d="M 12.828125 42.941406 L 12.828125 44.945312 L 21.738281 44.945312 C 22.242188 46.125 22.917969 47.214844 23.730469 48.179688 L 21.101562 50.824219 L 12.828125 50.824219 L 12.828125 52.828125 L 19.105469 52.828125 L 12.828125 59.082031 L 12.828125 60.574219 L 14.15625 60.574219 L 20.691406 54.066406 L 20.691406 60.535156 L 22.6875 60.535156 L 22.6875 52.0625 L 25.132812 49.605469 C 26.125 50.464844 27.25 51.179688 28.46875 51.699219 L 28.46875 60.574219 L 30.449219 60.574219 L 30.449219 50.609375 C 26.765625 49.5625 23.859375 46.640625 22.820312 42.941406 Z M 12.828125 42.941406 "/>
<path style=" stroke:none;fill-rule:nonzero;fill:url(#radial19);" d="M 52.5625 19.289062 L 46.132812 25.800781 L 46.132812 19.332031 L 44.140625 19.332031 L 44.140625 27.804688 L 41.691406 30.261719 C 40.699219 29.398438 39.582031 28.6875 38.359375 28.164062 L 38.359375 19.289062 L 36.363281 19.289062 L 36.363281 29.25 C 40.054688 30.296875 42.964844 33.21875 44.007812 36.925781 L 54 36.925781 L 54 34.921875 L 45.089844 34.921875 C 44.589844 33.738281 43.910156 32.648438 43.097656 31.683594 L 45.726562 29.042969 L 54 29.042969 L 54 27.039062 L 47.71875 27.039062 L 53.929688 20.746094 L 53.929688 19.289062 Z M 52.5625 19.289062 "/>
<path style=" stroke:none;fill-rule:nonzero;fill:url(#radial20);" d="M 52.5625 19.289062 L 46.132812 25.800781 L 46.132812 19.332031 L 44.140625 19.332031 L 44.140625 27.804688 L 41.691406 30.261719 C 40.699219 29.398438 39.582031 28.6875 38.359375 28.164062 L 38.359375 19.289062 L 36.363281 19.289062 L 36.363281 29.25 C 40.054688 30.296875 42.964844 33.21875 44.007812 36.925781 L 54 36.925781 L 54 34.921875 L 45.089844 34.921875 C 44.589844 33.738281 43.910156 32.648438 43.097656 31.683594 L 45.726562 29.042969 L 54 29.042969 L 54 27.039062 L 47.71875 27.039062 L 53.929688 20.746094 L 53.929688 19.289062 Z M 52.5625 19.289062 "/>
<path style=" stroke:none;fill-rule:nonzero;fill:url(#radial21);" d="M 52.5625 19.289062 L 46.132812 25.800781 L 46.132812 19.332031 L 44.140625 19.332031 L 44.140625 27.804688 L 41.691406 30.261719 C 40.699219 29.398438 39.582031 28.6875 38.359375 28.164062 L 38.359375 19.289062 L 36.363281 19.289062 L 36.363281 29.25 C 40.054688 30.296875 42.964844 33.21875 44.007812 36.925781 L 54 36.925781 L 54 34.921875 L 45.089844 34.921875 C 44.589844 33.738281 43.910156 32.648438 43.097656 31.683594 L 45.726562 29.042969 L 54 29.042969 L 54 27.039062 L 47.71875 27.039062 L 53.929688 20.746094 L 53.929688 19.289062 Z M 52.5625 19.289062 "/>
<path style=" stroke:none;fill-rule:nonzero;fill:url(#radial22);" d="M 28.46875 19.289062 L 28.46875 28.164062 C 27.25 28.6875 26.125 29.398438 25.132812 30.261719 L 22.6875 27.804688 L 22.6875 19.332031 L 20.691406 19.332031 L 20.691406 25.800781 L 14.210938 19.289062 L 12.828125 19.289062 L 12.828125 20.734375 L 19.105469 27.039062 L 12.828125 27.039062 L 12.828125 29.042969 L 21.101562 29.042969 L 23.730469 31.683594 C 22.917969 32.648438 22.242188 33.738281 21.738281 34.921875 L 12.828125 34.921875 L 12.828125 36.925781 L 22.820312 36.925781 C 23.859375 33.21875 26.773438 30.296875 30.460938 29.25 L 30.460938 19.289062 Z M 28.46875 19.289062 "/>
<path style=" stroke:none;fill-rule:nonzero;fill:url(#radial23);" d="M 28.46875 19.289062 L 28.46875 28.164062 C 27.25 28.6875 26.125 29.398438 25.132812 30.261719 L 22.6875 27.804688 L 22.6875 19.332031 L 20.691406 19.332031 L 20.691406 25.800781 L 14.210938 19.289062 L 12.828125 19.289062 L 12.828125 20.734375 L 19.105469 27.039062 L 12.828125 27.039062 L 12.828125 29.042969 L 21.101562 29.042969 L 23.730469 31.683594 C 22.917969 32.648438 22.242188 33.738281 21.738281 34.921875 L 12.828125 34.921875 L 12.828125 36.925781 L 22.820312 36.925781 C 23.859375 33.21875 26.773438 30.296875 30.460938 29.25 L 30.460938 19.289062 Z M 28.46875 19.289062 "/>
<path style=" stroke:none;fill-rule:nonzero;fill:url(#radial24);" d="M 28.46875 19.289062 L 28.46875 28.164062 C 27.25 28.6875 26.125 29.398438 25.132812 30.261719 L 22.6875 27.804688 L 22.6875 19.332031 L 20.691406 19.332031 L 20.691406 25.800781 L 14.210938 19.289062 L 12.828125 19.289062 L 12.828125 20.734375 L 19.105469 27.039062 L 12.828125 27.039062 L 12.828125 29.042969 L 21.101562 29.042969 L 23.730469 31.683594 C 22.917969 32.648438 22.242188 33.738281 21.738281 34.921875 L 12.828125 34.921875 L 12.828125 36.925781 L 22.820312 36.925781 C 23.859375 33.21875 26.773438 30.296875 30.460938 29.25 L 30.460938 19.289062 Z M 28.46875 19.289062 "/>
<path style=" stroke:none;fill-rule:nonzero;fill:url(#radial25);" d="M 52.5625 19.289062 L 46.132812 25.800781 L 46.132812 19.332031 L 44.140625 19.332031 L 44.140625 27.804688 L 41.691406 30.261719 C 40.699219 29.398438 39.582031 28.6875 38.359375 28.164062 L 38.359375 19.289062 L 36.363281 19.289062 L 36.363281 29.25 C 40.054688 30.296875 42.964844 33.21875 44.007812 36.925781 L 54 36.925781 L 54 34.921875 L 45.089844 34.921875 C 44.589844 33.738281 43.910156 32.648438 43.097656 31.683594 L 45.726562 29.042969 L 54 29.042969 L 54 27.039062 L 47.71875 27.039062 L 53.929688 20.746094 L 53.929688 19.289062 Z M 52.5625 19.289062 "/>
<path style=" stroke:none;fill-rule:nonzero;fill:url(#radial26);" d="M 52.5625 19.289062 L 46.132812 25.800781 L 46.132812 19.332031 L 44.140625 19.332031 L 44.140625 27.804688 L 41.691406 30.261719 C 40.699219 29.398438 39.582031 28.6875 38.359375 28.164062 L 38.359375 19.289062 L 36.363281 19.289062 L 36.363281 29.25 C 40.054688 30.296875 42.964844 33.21875 44.007812 36.925781 L 54 36.925781 L 54 34.921875 L 45.089844 34.921875 C 44.589844 33.738281 43.910156 32.648438 43.097656 31.683594 L 45.726562 29.042969 L 54 29.042969 L 54 27.039062 L 47.71875 27.039062 L 53.929688 20.746094 L 53.929688 19.289062 Z M 52.5625 19.289062 "/>
<path style=" stroke:none;fill-rule:nonzero;fill:url(#radial27);" d="M 52.5625 19.289062 L 46.132812 25.800781 L 46.132812 19.332031 L 44.140625 19.332031 L 44.140625 27.804688 L 41.691406 30.261719 C 40.699219 29.398438 39.582031 28.6875 38.359375 28.164062 L 38.359375 19.289062 L 36.363281 19.289062 L 36.363281 29.25 C 40.054688 30.296875 42.964844 33.21875 44.007812 36.925781 L 54 36.925781 L 54 34.921875 L 45.089844 34.921875 C 44.589844 33.738281 43.910156 32.648438 43.097656 31.683594 L 45.726562 29.042969 L 54 29.042969 L 54 27.039062 L 47.71875 27.039062 L 53.929688 20.746094 L 53.929688 19.289062 Z M 52.5625 19.289062 "/>
<path style=" stroke:none;fill-rule:nonzero;fill:url(#radial28);" d="M 28.46875 19.289062 L 28.46875 28.164062 C 27.25 28.6875 26.125 29.398438 25.132812 30.261719 L 22.6875 27.804688 L 22.6875 19.332031 L 20.691406 19.332031 L 20.691406 25.800781 L 14.210938 19.289062 L 12.828125 19.289062 L 12.828125 20.734375 L 19.105469 27.039062 L 12.828125 27.039062 L 12.828125 29.042969 L 21.101562 29.042969 L 23.730469 31.683594 C 22.917969 32.648438 22.242188 33.738281 21.738281 34.921875 L 12.828125 34.921875 L 12.828125 36.925781 L 22.820312 36.925781 C 23.859375 33.21875 26.773438 30.296875 30.460938 29.25 L 30.460938 19.289062 Z M 28.46875 19.289062 "/>
<path style=" stroke:none;fill-rule:nonzero;fill:url(#radial29);" d="M 28.46875 19.289062 L 28.46875 28.164062 C 27.25 28.6875 26.125 29.398438 25.132812 30.261719 L 22.6875 27.804688 L 22.6875 19.332031 L 20.691406 19.332031 L 20.691406 25.800781 L 14.210938 19.289062 L 12.828125 19.289062 L 12.828125 20.734375 L 19.105469 27.039062 L 12.828125 27.039062 L 12.828125 29.042969 L 21.101562 29.042969 L 23.730469 31.683594 C 22.917969 32.648438 22.242188 33.738281 21.738281 34.921875 L 12.828125 34.921875 L 12.828125 36.925781 L 22.820312 36.925781 C 23.859375 33.21875 26.773438 30.296875 30.460938 29.25 L 30.460938 19.289062 Z M 28.46875 19.289062 "/>
<path style=" stroke:none;fill-rule:nonzero;fill:url(#radial30);" d="M 28.46875 19.289062 L 28.46875 28.164062 C 27.25 28.6875 26.125 29.398438 25.132812 30.261719 L 22.6875 27.804688 L 22.6875 19.332031 L 20.691406 19.332031 L 20.691406 25.800781 L 14.210938 19.289062 L 12.828125 19.289062 L 12.828125 20.734375 L 19.105469 27.039062 L 12.828125 27.039062 L 12.828125 29.042969 L 21.101562 29.042969 L 23.730469 31.683594 C 22.917969 32.648438 22.242188 33.738281 21.738281 34.921875 L 12.828125 34.921875 L 12.828125 36.925781 L 22.820312 36.925781 C 23.859375 33.21875 26.773438 30.296875 30.460938 29.25 L 30.460938 19.289062 Z M 28.46875 19.289062 "/>
<path style=" stroke:none;fill-rule:nonzero;fill:url(#radial31);" d="M 52.5625 19.289062 L 46.132812 25.800781 L 46.132812 19.332031 L 44.140625 19.332031 L 44.140625 27.804688 L 41.691406 30.261719 C 40.699219 29.398438 39.582031 28.6875 38.359375 28.164062 L 38.359375 19.289062 L 36.363281 19.289062 L 36.363281 29.25 C 40.054688 30.296875 42.964844 33.21875 44.007812 36.925781 L 54 36.925781 L 54 34.921875 L 45.089844 34.921875 C 44.589844 33.738281 43.910156 32.648438 43.097656 31.683594 L 45.726562 29.042969 L 54 29.042969 L 54 27.039062 L 47.71875 27.039062 L 53.929688 20.746094 L 53.929688 19.289062 Z M 52.5625 19.289062 "/>
<path style=" stroke:none;fill-rule:nonzero;fill:url(#radial32);" d="M 52.5625 19.289062 L 46.132812 25.800781 L 46.132812 19.332031 L 44.140625 19.332031 L 44.140625 27.804688 L 41.691406 30.261719 C 40.699219 29.398438 39.582031 28.6875 38.359375 28.164062 L 38.359375 19.289062 L 36.363281 19.289062 L 36.363281 29.25 C 40.054688 30.296875 42.964844 33.21875 44.007812 36.925781 L 54 36.925781 L 54 34.921875 L 45.089844 34.921875 C 44.589844 33.738281 43.910156 32.648438 43.097656 31.683594 L 45.726562 29.042969 L 54 29.042969 L 54 27.039062 L 47.71875 27.039062 L 53.929688 20.746094 L 53.929688 19.289062 Z M 52.5625 19.289062 "/>
<path style=" stroke:none;fill-rule:nonzero;fill:url(#radial33);" d="M 52.5625 19.289062 L 46.132812 25.800781 L 46.132812 19.332031 L 44.140625 19.332031 L 44.140625 27.804688 L 41.691406 30.261719 C 40.699219 29.398438 39.582031 28.6875 38.359375 28.164062 L 38.359375 19.289062 L 36.363281 19.289062 L 36.363281 29.25 C 40.054688 30.296875 42.964844 33.21875 44.007812 36.925781 L 54 36.925781 L 54 34.921875 L 45.089844 34.921875 C 44.589844 33.738281 43.910156 32.648438 43.097656 31.683594 L 45.726562 29.042969 L 54 29.042969 L 54 27.039062 L 47.71875 27.039062 L 53.929688 20.746094 L 53.929688 19.289062 Z M 52.5625 19.289062 "/>
<path style=" stroke:none;fill-rule:nonzero;fill:url(#radial34);" d="M 28.46875 19.289062 L 28.46875 28.164062 C 27.25 28.6875 26.125 29.398438 25.132812 30.261719 L 22.6875 27.804688 L 22.6875 19.332031 L 20.691406 19.332031 L 20.691406 25.800781 L 14.210938 19.289062 L 12.828125 19.289062 L 12.828125 20.734375 L 19.105469 27.039062 L 12.828125 27.039062 L 12.828125 29.042969 L 21.101562 29.042969 L 23.730469 31.683594 C 22.917969 32.648438 22.242188 33.738281 21.738281 34.921875 L 12.828125 34.921875 L 12.828125 36.925781 L 22.820312 36.925781 C 23.859375 33.21875 26.773438 30.296875 30.460938 29.25 L 30.460938 19.289062 Z M 28.46875 19.289062 "/>
<path style=" stroke:none;fill-rule:nonzero;fill:url(#radial35);" d="M 28.46875 19.289062 L 28.46875 28.164062 C 27.25 28.6875 26.125 29.398438 25.132812 30.261719 L 22.6875 27.804688 L 22.6875 19.332031 L 20.691406 19.332031 L 20.691406 25.800781 L 14.210938 19.289062 L 12.828125 19.289062 L 12.828125 20.734375 L 19.105469 27.039062 L 12.828125 27.039062 L 12.828125 29.042969 L 21.101562 29.042969 L 23.730469 31.683594 C 22.917969 32.648438 22.242188 33.738281 21.738281 34.921875 L 12.828125 34.921875 L 12.828125 36.925781 L 22.820312 36.925781 C 23.859375 33.21875 26.773438 30.296875 30.460938 29.25 L 30.460938 19.289062 Z M 28.46875 19.289062 "/>
<path style=" stroke:none;fill-rule:nonzero;fill:url(#radial36);" d="M 28.46875 19.289062 L 28.46875 28.164062 C 27.25 28.6875 26.125 29.398438 25.132812 30.261719 L 22.6875 27.804688 L 22.6875 19.332031 L 20.691406 19.332031 L 20.691406 25.800781 L 14.210938 19.289062 L 12.828125 19.289062 L 12.828125 20.734375 L 19.105469 27.039062 L 12.828125 27.039062 L 12.828125 29.042969 L 21.101562 29.042969 L 23.730469 31.683594 C 22.917969 32.648438 22.242188 33.738281 21.738281 34.921875 L 12.828125 34.921875 L 12.828125 36.925781 L 22.820312 36.925781 C 23.859375 33.21875 26.773438 30.296875 30.460938 29.25 L 30.460938 19.289062 Z M 28.46875 19.289062 "/>
<path style=" stroke:none;fill-rule:nonzero;fill:rgb(23.529412%,43.921569%,75.294118%);fill-opacity:1;" d="M 35.023438 49.53125 L 35.003906 49.53125 L 35.003906 49.511719 L 35.023438 49.511719 Z M 35.023438 49.53125 "/>
</g>
</svg>
